<svg xmlns="http://www.w3.org/2000/svg" xmlns:xlink="http://www.w3.org/1999/xlink"><symbol id="calendar" viewBox="0 0 42 47"><g fill="none">
<path d="M0.593262 42.5938C0.593262 45.0264 2.54016 47 4.93982 47H36.8146C39.2143 47 41.1611 45.0264 41.1611 42.5938V17.625H0.593262V42.5938ZM29.5703 24.6016C29.5703 23.9957 30.0593 23.5 30.657 23.5H34.2791C34.8767 23.5 35.3657 23.9957 35.3657 24.6016V28.2734C35.3657 28.8793 34.8767 29.375 34.2791 29.375H30.657C30.0593 29.375 29.5703 28.8793 29.5703 28.2734V24.6016ZM29.5703 36.3516C29.5703 35.7457 30.0593 35.25 30.657 35.25H34.2791C34.8767 35.25 35.3657 35.7457 35.3657 36.3516V40.0234C35.3657 40.6293 34.8767 41.125 34.2791 41.125H30.657C30.0593 41.125 29.5703 40.6293 29.5703 40.0234V36.3516ZM17.9795 24.6016C17.9795 23.9957 18.4685 23.5 19.0661 23.5H22.6883C23.2859 23.5 23.7749 23.9957 23.7749 24.6016V28.2734C23.7749 28.8793 23.2859 29.375 22.6883 29.375H19.0661C18.4685 29.375 17.9795 28.8793 17.9795 28.2734V24.6016ZM17.9795 36.3516C17.9795 35.7457 18.4685 35.25 19.0661 35.25H22.6883C23.2859 35.25 23.7749 35.7457 23.7749 36.3516V40.0234C23.7749 40.6293 23.2859 41.125 22.6883 41.125H19.0661C18.4685 41.125 17.9795 40.6293 17.9795 40.0234V36.3516ZM6.38867 24.6016C6.38867 23.9957 6.87766 23.5 7.47531 23.5H11.0974C11.6951 23.5 12.1841 23.9957 12.1841 24.6016V28.2734C12.1841 28.8793 11.6951 29.375 11.0974 29.375H7.47531C6.87766 29.375 6.38867 28.8793 6.38867 28.2734V24.6016ZM6.38867 36.3516C6.38867 35.7457 6.87766 35.25 7.47531 35.25H11.0974C11.6951 35.25 12.1841 35.7457 12.1841 36.3516V40.0234C12.1841 40.6293 11.6951 41.125 11.0974 41.125H7.47531C6.87766 41.125 6.38867 40.6293 6.38867 40.0234V36.3516ZM36.8146 5.875H32.468V1.46875C32.468 0.660937 31.816 0 31.0192 0H28.1215C27.3246 0 26.6726 0.660937 26.6726 1.46875V5.875H15.0818V1.46875C15.0818 0.660937 14.4298 0 13.6329 0H10.7352C9.93836 0 9.28638 0.660937 9.28638 1.46875V5.875H4.93982C2.54016 5.875 0.593262 7.84863 0.593262 10.2812V14.6875H41.1611V10.2812C41.1611 7.84863 39.2143 5.875 36.8146 5.875Z" fill="#BE1E2D"/>
</g></symbol><symbol id="close" viewBox="0 0 41 41"><g fill="none">
<path d="M20.5 0C9.1754 0 0 9.1754 0 20.5C0 31.8246 9.1754 41 20.5 41C31.8246 41 41 31.8246 41 20.5C41 9.1754 31.8246 0 20.5 0ZM30.5516 25.8813C30.9401 26.2698 30.9401 26.898 30.5516 27.2865L27.2782 30.5516C26.8897 30.9401 26.2615 30.9401 25.873 30.5516L20.5 25.129L15.1187 30.5516C14.7302 30.9401 14.102 30.9401 13.7135 30.5516L10.4484 27.2782C10.0599 26.8897 10.0599 26.2615 10.4484 25.873L15.871 20.5L10.4484 15.1187C10.0599 14.7302 10.0599 14.102 10.4484 13.7135L13.7218 10.4401C14.1103 10.0516 14.7385 10.0516 15.127 10.4401L20.5 15.871L25.8813 10.4484C26.2698 10.0599 26.898 10.0599 27.2865 10.4484L30.5599 13.7218C30.9484 14.1103 30.9484 14.7385 30.5599 15.127L25.129 20.5L30.5516 25.8813Z" fill="#BE1E2D"/>
</g></symbol><symbol id="excel" viewBox="0 0 36 47"><g fill="none">
<path d="M20.6976 12.4844V0H2.66054C1.46108 0 0.496094 0.982226 0.496094 2.20312V44.7969C0.496094 46.0178 1.46108 47 2.66054 47H32.9628C34.1622 47 35.1272 46.0178 35.1272 44.7969V14.6875H22.862C21.6716 14.6875 20.6976 13.6961 20.6976 12.4844ZM27.5922 31.8866L18.8966 40.6715C18.2969 41.2783 17.3283 41.2783 16.7285 40.6715L8.03287 31.8866C7.11749 30.9622 7.75961 29.375 9.04746 29.375H14.9257V22.0312C14.9257 21.2198 15.5715 20.5625 16.3687 20.5625H19.2546C20.0519 20.5625 20.6976 21.2198 20.6976 22.0312V29.375H26.5759C27.8637 29.375 28.5058 30.9622 27.5922 31.8866ZM34.4959 9.63867L25.6668 0.642578C25.261 0.229492 24.7108 0 24.1336 0H23.5835V11.75H35.1272V11.19C35.1272 10.6117 34.9018 10.0518 34.4959 9.63867Z" fill="#BE1E2D"/>
</g></symbol><symbol id="pdf" viewBox="0 0 152 204"><g fill="none">
<path d="M72.0021 102.04C70.0229 95.6648 70.0625 83.3531 71.2104 83.3531C74.5354 83.3531 74.2187 98.0555 72.0021 102.04ZM71.3292 120.846C68.2813 128.895 64.4813 138.098 60.0875 145.828C67.3313 143.039 75.525 138.975 84.9854 137.102C79.9583 133.277 75.1292 127.779 71.3292 120.846ZM34.0812 170.571C34.0812 170.89 39.3063 168.42 47.8958 154.554C45.2438 157.064 36.3771 164.316 34.0812 170.571ZM98.1667 63.75H152V194.437C152 199.737 147.765 204 142.5 204H9.5C4.23542 204 0 199.737 0 194.437V9.5625C0 4.26328 4.23542 0 9.5 0H88.6667V54.1875C88.6667 59.4469 92.9417 63.75 98.1667 63.75ZM95 132.202C87.0833 127.341 81.8188 120.647 78.0979 110.766C79.8792 103.395 82.6896 92.1984 80.5521 85.1859C78.6917 73.4719 63.7687 74.6273 61.6312 82.4766C59.6521 89.768 61.4729 100.048 64.8375 113.156C60.2458 124.153 53.4771 138.895 48.6875 147.342C48.6479 147.342 48.6479 147.382 48.6083 147.382C37.8813 152.92 19.475 165.112 27.0354 174.476C29.2521 177.225 33.3688 178.46 35.5458 178.46C42.6313 178.46 49.6771 171.288 59.7313 153.837C69.9438 150.45 81.1458 146.227 91.0021 144.593C99.5917 149.295 109.646 152.362 116.335 152.362C127.894 152.362 128.685 139.612 124.133 135.07C118.631 129.652 102.64 131.205 95 132.202ZM149.229 41.8359L110.438 2.78906C108.656 0.996094 106.242 0 103.708 0H101.333V51H152V48.5695C152 46.0594 151.01 43.6289 149.229 41.8359ZM119.898 143.557C121.521 142.481 118.908 138.816 102.956 139.971C117.642 146.266 119.898 143.557 119.898 143.557Z" fill="#BE1E2D"/>
</g></symbol><symbol id="search" viewBox="0 0 25 26"><g fill="none">
<path d="M24.6451 21.6162L19.8283 16.748C19.6109 16.5283 19.3162 16.4062 19.007 16.4062H18.2194C19.5529 14.6826 20.3452 12.5146 20.3452 10.1562C20.3452 4.5459 15.8473 0 10.296 0C4.74481 0 0.246826 4.5459 0.246826 10.1562C0.246826 15.7666 4.74481 20.3125 10.296 20.3125C12.6296 20.3125 14.7747 19.5117 16.4802 18.1641V18.96C16.4802 19.2725 16.6009 19.5703 16.8184 19.79L21.6352 24.6582C22.0894 25.1172 22.8237 25.1172 23.273 24.6582L24.6403 23.2764C25.0945 22.8174 25.0945 22.0752 24.6451 21.6162ZM10.296 16.4062C6.88027 16.4062 4.11191 13.6133 4.11191 10.1562C4.11191 6.7041 6.87544 3.90625 10.296 3.90625C13.7118 3.90625 16.4802 6.69922 16.4802 10.1562C16.4802 13.6084 13.7166 16.4062 10.296 16.4062Z" fill="black"/>
</g></symbol></svg>