<svg width="42" height="47" viewBox="0 0 42 47" fill="none" xmlns="http://www.w3.org/2000/svg">
<path d="M0.593262 42.5938C0.593262 45.0264 2.54016 47 4.93982 47H36.8146C39.2143 47 41.1611 45.0264 41.1611 42.5938V17.625H0.593262V42.5938ZM29.5703 24.6016C29.5703 23.9957 30.0593 23.5 30.657 23.5H34.2791C34.8767 23.5 35.3657 23.9957 35.3657 24.6016V28.2734C35.3657 28.8793 34.8767 29.375 34.2791 29.375H30.657C30.0593 29.375 29.5703 28.8793 29.5703 28.2734V24.6016ZM29.5703 36.3516C29.5703 35.7457 30.0593 35.25 30.657 35.25H34.2791C34.8767 35.25 35.3657 35.7457 35.3657 36.3516V40.0234C35.3657 40.6293 34.8767 41.125 34.2791 41.125H30.657C30.0593 41.125 29.5703 40.6293 29.5703 40.0234V36.3516ZM17.9795 24.6016C17.9795 23.9957 18.4685 23.5 19.0661 23.5H22.6883C23.2859 23.5 23.7749 23.9957 23.7749 24.6016V28.2734C23.7749 28.8793 23.2859 29.375 22.6883 29.375H19.0661C18.4685 29.375 17.9795 28.8793 17.9795 28.2734V24.6016ZM17.9795 36.3516C17.9795 35.7457 18.4685 35.25 19.0661 35.25H22.6883C23.2859 35.25 23.7749 35.7457 23.7749 36.3516V40.0234C23.7749 40.6293 23.2859 41.125 22.6883 41.125H19.0661C18.4685 41.125 17.9795 40.6293 17.9795 40.0234V36.3516ZM6.38867 24.6016C6.38867 23.9957 6.87766 23.5 7.47531 23.5H11.0974C11.6951 23.5 12.1841 23.9957 12.1841 24.6016V28.2734C12.1841 28.8793 11.6951 29.375 11.0974 29.375H7.47531C6.87766 29.375 6.38867 28.8793 6.38867 28.2734V24.6016ZM6.38867 36.3516C6.38867 35.7457 6.87766 35.25 7.47531 35.25H11.0974C11.6951 35.25 12.1841 35.7457 12.1841 36.3516V40.0234C12.1841 40.6293 11.6951 41.125 11.0974 41.125H7.47531C6.87766 41.125 6.38867 40.6293 6.38867 40.0234V36.3516ZM36.8146 5.875H32.468V1.46875C32.468 0.660937 31.816 0 31.0192 0H28.1215C27.3246 0 26.6726 0.660937 26.6726 1.46875V5.875H15.0818V1.46875C15.0818 0.660937 14.4298 0 13.6329 0H10.7352C9.93836 0 9.28638 0.660937 9.28638 1.46875V5.875H4.93982C2.54016 5.875 0.593262 7.84863 0.593262 10.2812V14.6875H41.1611V10.2812C41.1611 7.84863 39.2143 5.875 36.8146 5.875Z" fill="#BE1E2D"/>
</svg>
