<svg width="36" height="47" viewBox="0 0 36 47" fill="none" xmlns="http://www.w3.org/2000/svg">
<path d="M20.6976 12.4844V0H2.66054C1.46108 0 0.496094 0.982226 0.496094 2.20312V44.7969C0.496094 46.0178 1.46108 47 2.66054 47H32.9628C34.1622 47 35.1272 46.0178 35.1272 44.7969V14.6875H22.862C21.6716 14.6875 20.6976 13.6961 20.6976 12.4844ZM27.5922 31.8866L18.8966 40.6715C18.2969 41.2783 17.3283 41.2783 16.7285 40.6715L8.03287 31.8866C7.11749 30.9622 7.75961 29.375 9.04746 29.375H14.9257V22.0312C14.9257 21.2198 15.5715 20.5625 16.3687 20.5625H19.2546C20.0519 20.5625 20.6976 21.2198 20.6976 22.0312V29.375H26.5759C27.8637 29.375 28.5058 30.9622 27.5922 31.8866ZM34.4959 9.63867L25.6668 0.642578C25.261 0.229492 24.7108 0 24.1336 0H23.5835V11.75H35.1272V11.19C35.1272 10.6117 34.9018 10.0518 34.4959 9.63867Z" fill="#BE1E2D"/>
</svg>
