<svg width="25" height="26" viewBox="0 0 25 26" fill="none" xmlns="http://www.w3.org/2000/svg">
<path d="M24.6451 21.6162L19.8283 16.748C19.6109 16.5283 19.3162 16.4062 19.007 16.4062H18.2194C19.5529 14.6826 20.3452 12.5146 20.3452 10.1562C20.3452 4.5459 15.8473 0 10.296 0C4.74481 0 0.246826 4.5459 0.246826 10.1562C0.246826 15.7666 4.74481 20.3125 10.296 20.3125C12.6296 20.3125 14.7747 19.5117 16.4802 18.1641V18.96C16.4802 19.2725 16.6009 19.5703 16.8184 19.79L21.6352 24.6582C22.0894 25.1172 22.8237 25.1172 23.273 24.6582L24.6403 23.2764C25.0945 22.8174 25.0945 22.0752 24.6451 21.6162ZM10.296 16.4062C6.88027 16.4062 4.11191 13.6133 4.11191 10.1562C4.11191 6.7041 6.87544 3.90625 10.296 3.90625C13.7118 3.90625 16.4802 6.69922 16.4802 10.1562C16.4802 13.6084 13.7166 16.4062 10.296 16.4062Z" fill="black"/>
</svg>
